<mxfile host="Electron" modified="2024-02-21T07:04:34.763Z" agent="Mozilla/5.0 (X11; Linux x86_64) AppleWebKit/537.36 (KHTML, like Gecko) draw.io/22.1.21 Chrome/120.0.6099.109 Electron/28.1.0 Safari/537.36" etag="H5Q4z1zNYA9stsE1kW2w" version="22.1.21" type="device">
  <diagram id="2f404044-711c-603c-8f00-f6bb4c023d3c" name="Page-1">
    <mxGraphModel dx="682" dy="468" grid="1" gridSize="10" guides="1" tooltips="1" connect="1" arrows="1" fold="1" page="1" pageScale="1" pageWidth="827" pageHeight="1169" background="none" math="0" shadow="0">
      <root>
        <mxCell id="0" />
        <mxCell id="1" parent="0" />
        <mxCell id="os4LgzAEuIEG7fqNAOku-224" value="" style="rounded=0;whiteSpace=wrap;html=1;fillColor=none;dashed=1;dashPattern=1 4;" vertex="1" parent="1">
          <mxGeometry x="220" y="150" width="320" height="280" as="geometry" />
        </mxCell>
        <mxCell id="os4LgzAEuIEG7fqNAOku-225" value="priv-net" style="text;strokeColor=none;align=center;fillColor=none;html=1;verticalAlign=middle;whiteSpace=wrap;rounded=0;fontSize=9;" vertex="1" parent="1">
          <mxGeometry x="238.75" y="152.5" width="51.25" height="15" as="geometry" />
        </mxCell>
        <mxCell id="os4LgzAEuIEG7fqNAOku-226" value="" style="shape=image;verticalLabelPosition=bottom;verticalAlign=top;imageAspect=0;aspect=fixed;image=data:image/svg+xml,PHN2ZyB4bWxuczp4bGluaz0iaHR0cDovL3d3dy53My5vcmcvMTk5OS94bGluayIgeG1sbnM9Imh0dHA6Ly93d3cudzMub3JnLzIwMDAvc3ZnIiB2aWV3Qm94PSIwIDAgNTUgNTUiIGhlaWdodD0iNTUiIHdpZHRoPSI1NSIgdmVyc2lvbj0iMS4xIj48cmVjdCBjbGFzcz0iIiBzdHlsZT0iIiBzdHJva2U9Im5vbmUiIGZpbGw9Im5vbmUiIHk9IjAiIHg9IjAiIGhlaWdodD0iMTAwJSIgd2lkdGg9IjEwMCUiIGlkPSJiYWNrZ3JvdW5kcmVjdCIvPiYjeGE7PGNpcmNsZSBpZD0ic3ZnXzIiIGN4PSIyOC4wNDA0MzQ4MzczNDEzMSIgY3k9IjI3LjM5NTg1NDA1NTg4MTUiIHN0eWxlPSJmaWxsOndoaXRlO2ZpbGwtb3BhY2l0eT0wLjA7c3Ryb2tlLXdpZHRoOjM7c3Ryb2tlOmJsYWNrIiByPSIyNSIgY2xhc3M9ImZyYW1lIi8+JiN4YTs8ZyBzdHlsZT0iIiBjbGFzcz0iY3VycmVudExheWVyIj48dGl0bGU+TGF5ZXIgMTwvdGl0bGU+PGcgaWQ9InN2Z18xIiBmaWxsPSJ3aGl0ZSIgY2xhc3M9Im5vZGUiPjxwYXRoIGNsYXNzPSIiIGlkPSJzdmdfMSIgZmlsbD0iYmxhY2siIGQ9Ik00Ny41NzU2NjU1NjY2NjYxLDM0LjE5MTg4NzA4NzQzMjkyIHEwLDMuMzI0NTI5ODM1MTYxNjM3NyAtMi4zNTI4Njc3MzM1ODA1ODE0LDUuNjc3Mzk3NTY4NzQyMjE3IHQtNS42NzczOTc1Njg3NDIyMTcsMi4zNTI4Njc3MzM1ODA1ODE0IGgtMjIuNzUyNDE4MzU2NTgxMjUgcS0zLjg2NzkxMTEyMDYxODgxMTcsMCAtNi42MTk2MTUzNjQyMTQ3NTQsLTIuNzQ5MDI3NDg4NDk1MTY5NSB0LTIuNzQ5MDI3NDg4NDk1MTY5NSwtNi42MTk2MTUzNjQyMTQ3NTQgcTAsLTIuNzU5NzM0NTA4ODk4MjY2IDEuNDg1NTk5MDgwOTI5NzE4MiwtNS4wNTEwMzY4NzUxNjEwMzcgdDMuOTEwNzM5MjAyMjMxMiwtMy40MTgyMTYyNjM2ODg3MzUgcS0wLjA0MjgyODA4MTYxMjM4ODM2LC0wLjU4NjIwOTM2NzA2OTU2NDcgLTAuMDQyODI4MDgxNjEyMzg4MzYsLTAuODk5Mzg5NzEzODYwMTU0MSBxMCwtNC40MzI3MDY0NDY4ODIxODQgMy4xMzcxNTY5NzgxMDc0MzksLTcuNTY5ODYzNDI0OTg5NjE5IHQ3LjU2OTg2MzQyNDk4OTYxOSwtMy4xMzcxNTY5NzgxMDc0MzkgcTMuMzAzMTE1Nzk0MzU1NDQxNCwwIDUuOTkwNTc3OTE1NTMyODA0LDEuODQxNjA3NTA5MzMyNjk1NiB0My45MjE0NDYyMjI2MzQyOTgsNC44MTAxMjg5MTYwOTEzNTQ1IHExLjQ2NDE4NTA0MDEyMzUyMzIsLTEuMjk1NTQ5NDY4Nzc0NzQ1NSAzLjQ3MTc1MTM2NTcwNDIyMTQsLTEuMjk1NTQ5NDY4Nzc0NzQ1NSBxMi4yMTYzNTMyMjM0NDEwOTA4LDAgMy43ODQ5MzE3MTI0OTQ4MDk2LDEuNTY4NTc4NDg5MDUzNzIwMiB0MS41Njg1Nzg0ODkwNTM3MjAyLDMuNzg0OTMxNzEyNDk0ODA5NiBxMCwxLjU2ODU3ODQ4OTA1MzcyMDIgLTAuODU2NTYxNjMyMjQ3NzY1LDIuODg1NTQxOTk4NjM0NjU4IHEyLjY5ODE2OTE0MTU4MDQ1ODUsMC42MjYzNjA2OTM1ODExNzg3IDQuNDU0MTIwNDg3Njg4Mzc2LDIuODEzMjY5NjEwOTEzNzUzNCB0MS43NTU5NTEzNDYxMDc5MTkzLDUuMDA4MjA4NzkzNTQ4NjQ4IHoiLz48L2c+PC9nPjwvc3ZnPg==" vertex="1" parent="1">
          <mxGeometry x="220.99999999999994" y="151.63" width="18.75" height="18.75" as="geometry" />
        </mxCell>
        <mxCell id="os4LgzAEuIEG7fqNAOku-227" value="" style="rounded=0;whiteSpace=wrap;html=1;fillColor=none;dashed=1;dashPattern=1 4;strokeColor=#18D00A;strokeWidth=2;" vertex="1" parent="1">
          <mxGeometry x="250" y="248" width="120" height="100" as="geometry" />
        </mxCell>
        <mxCell id="os4LgzAEuIEG7fqNAOku-228" value="jhub-secgroup" style="text;strokeColor=none;align=center;fillColor=none;html=1;verticalAlign=middle;whiteSpace=wrap;rounded=0;fontSize=8;" vertex="1" parent="1">
          <mxGeometry x="268.75" y="251.5" width="61.25" height="15" as="geometry" />
        </mxCell>
        <mxCell id="os4LgzAEuIEG7fqNAOku-230" value="" style="shape=image;verticalLabelPosition=bottom;verticalAlign=top;imageAspect=0;aspect=fixed;image=data:image/svg+xml,PHN2ZyB4bWxuczp4bGluaz0iaHR0cDovL3d3dy53My5vcmcvMTk5OS94bGluayIgeG1sbnM9Imh0dHA6Ly93d3cudzMub3JnLzIwMDAvc3ZnIiB2aWV3Qm94PSIwIDAgNTUgNTUiIGhlaWdodD0iNTUiIHdpZHRoPSI1NSIgdmVyc2lvbj0iMS4xIj4mI3hhOzxnIHN0eWxlPSIiIGNsYXNzPSJjdXJyZW50TGF5ZXIiPjx0aXRsZT5MYXllciAxPC90aXRsZT48ZyBpZD0ic3ZnXzEiIGZpbGw9IndoaXRlIiBjbGFzcz0ibm9kZSI+JiN4YTsgICAgPGNpcmNsZSBpZD0ic3ZnXzIiIGN4PSIyOC4wNDA0MzQ4MzczNDEzMSIgY3k9IjI3LjM5NTg1NDA1NTg4MTUiIHN0eWxlPSJmaWxsOndoaXRlO2ZpbGwtb3BhY2l0eT0wLjA7c3Ryb2tlLXdpZHRoOjM7c3Ryb2tlOmdyZWVuIiByPSIyNSIgY2xhc3M9ImZyYW1lIi8+PHBhdGggY2xhc3M9InNlbGVjdGVkIiBpZD0ic3ZnXzEiIGZpbGw9ImdyZWVuIiBkPSJNMzYuOTUxMjYzMzI1MDkyNCwzMC4zMTgxODUzMjAzMDgwMzIgdi0xMy4xODE4MTI3NjYzODc2MjggaC05LjIyNzI2ODkzNjQ3MTM0IHYyMy40MTg4MDg1NjA3NjQyNiBxMi40NTE4MTcxNzQ1NDgwOTg4LC0xLjI5NzA5MDM3NjIxMjU0MzIgNC4zODY5MDcyODg2NTM4MDMsLTIuODIwOTA3OTMyMDA2OTUyNiBxNC44NDAzNjE2NDc4MTc1MzgsLTMuNzkxMDg5MzUxNjEzMDgyIDQuODQwMzYxNjQ3ODE3NTM4LC03LjQxMzQ1MTQ5OTgxNjQwMyB6TTQwLjkwNTgwNzE1NTAwODY5LDE0LjUwMDAxMDAwMDY0Mjg4MSB2MTUuODE4MTc1MzE5NjY1MTUzIHEwLDEuNzcxNjM1NjM1ODAyNDk3NiAtMC42OTA3MjY5ODg5NTg3MTE3LDMuNTExNjM0OTIwOTY1NjYyOCB0LTEuNzA4MzYyOTM0NTIzODM3MSwzLjA4OTgxNjkxMjQ0MTI2IHQtMi40MzA3MjYyNzQxMjE4Nzg1LDIuNjI1ODE3MTAzMDY0NDE1MyB0LTIuNjA0NzI2MjAyNjM4MTk1NCwyLjEyMjI3MTg1NTM4ODQwNzcgdC0yLjQ5MTM2MjYxMjg0NzI2MjMsMS41OTQ5OTkzNDQ3MzI5MDM2IHQtMS44NDI4MTc0MjQ3NDA5OTE0LDEuMDIwMjcyMzA4MTE4NDAzIHQtMC44NzUyNzIzNjc2ODgxMzk0LDAuNDExMjcyNTU4MzExMjk0NyBxLTAuMjQ3ODE4MDgwMDA4MDg3NzgsMC4xMjM5MDkwNDAwMDQwNDM4NyAtMC41MzUxODE1OTgzMTUzMzgyLDAuMTIzOTA5MDQwMDA0MDQzODcgdC0wLjUzNTE4MTU5ODMxNTMzODIsLTAuMTIzOTA5MDQwMDA0MDQzODcgcS0wLjMyOTU0NTMxOTE1OTY5MTI2LC0wLjE0NDk5OTk0MDQzMDI2NDM3IC0wLjg3NTI3MjM2NzY4ODEzOTQsLTAuNDExMjcyNTU4MzExMjk0NyB0LTEuODQyODE3NDI0NzQwOTkxNCwtMS4wMjAyNzIzMDgxMTg0MDMgdC0yLjQ5MTM2MjYxMjg0NzI2MjMsLTEuNTk0OTk5MzQ0NzMyOTAzNiB0LTIuNjA0NzI2MjAyNjM4MTk1NCwtMi4xMjIyNzE4NTUzODg0MDc3IHQtMi40MzA3MjYyNzQxMjE4Nzg1LC0yLjYyNTgxNzEwMzA2NDQxNTMgdC0xLjcwODM2MjkzNDUyMzgzNzEsLTMuMDg5ODE2OTEyNDQxMjYgdC0wLjY5MDcyNjk4ODk1ODcxMTcsLTMuNTExNjM0OTIwOTY1NjYyOCB2LTE1LjgxODE3NTMxOTY2NTE1MyBxMCwtMC41MzUxODE1OTgzMTUzMzgyIDAuMzkwMTgxNjU3ODg1MDc0MSwtMC45Mjc5OTk2MTg3NTM2ODkzIHQwLjkyNzk5OTYxODc1MzY4OTMsLTAuMzkwMTgxNjU3ODg1MDc0MSBoMjMuNzI3MjYyOTc5NDk3NzMgcTAuNTM1MTgxNTk4MzE1MzM4MiwwIDAuOTI3OTk5NjE4NzUzNjg5MywwLjM5MDE4MTY1Nzg4NTA3NDEgdDAuMzkwMTgxNjU3ODg1MDc0MSwwLjkyNzk5OTYxODc1MzY4OTMgeiIvPjwvZz48L2c+PC9zdmc+" vertex="1" parent="1">
          <mxGeometry x="251.5" y="250.25" width="17.5" height="17.5" as="geometry" />
        </mxCell>
        <mxCell id="os4LgzAEuIEG7fqNAOku-241" style="edgeStyle=orthogonalEdgeStyle;rounded=0;orthogonalLoop=1;jettySize=auto;html=1;entryX=0;entryY=0.5;entryDx=0;entryDy=0;endArrow=none;endFill=0;" edge="1" parent="1" source="os4LgzAEuIEG7fqNAOku-232" target="os4LgzAEuIEG7fqNAOku-233">
          <mxGeometry relative="1" as="geometry">
            <Array as="points">
              <mxPoint x="310" y="234" />
              <mxPoint x="310" y="288" />
            </Array>
          </mxGeometry>
        </mxCell>
        <mxCell id="os4LgzAEuIEG7fqNAOku-232" value="floating-ip" style="shape=image;verticalLabelPosition=bottom;verticalAlign=top;imageAspect=0;aspect=fixed;image=data:image/svg+xml,PHN2ZyB4bWxucz0iaHR0cDovL3d3dy53My5vcmcvMjAwMC9zdmciIHZpZXdCb3g9IjMuMDQwNDM1NzkxMDE1NjI1IDIuMzk1ODU0OTQ5OTUxMTcyIDUwIDUwIiBzdHlsZT0iYmFja2dyb3VuZC1jb2xvcjogI0ZGRkZGRjsiIHByZXNlcnZlQXNwZWN0UmF0aW89InhNaWRZTWlkIG1lZXQiIGhlaWdodD0iNTAiIHdpZHRoPSI1MCIgdmVyc2lvbj0iMS4wIj4mI3hhOzxnIHN0eWxlPSIiIGNsYXNzPSJjdXJyZW50TGF5ZXIiPjx0aXRsZT5MYXllciAxPC90aXRsZT4mI3hhOyAgICA8Y2lyY2xlIGlkPSJzdmdfMTAiIGN4PSIyOC4wNDA0MzU3OTEwMTU2MjUiIGN5PSIyNy4zOTU4NTQ5NDk5NTExNzIiIHN0eWxlPSJmaWxsOndoaXRlO2ZpbGwtb3BhY2l0eT0wLjA7c3Ryb2tlLXdpZHRoOjM7c3Ryb2tlOmdyZWVuIiByPSIyNSIgY2xhc3M9ImZyYW1lIi8+PGcgY2xhc3M9IiIgaWQ9InN2Z18xIiBzdHJva2U9Im5vbmUiIGZpbGw9ImdyZWVuIiB0cmFuc2Zvcm09InRyYW5zbGF0ZSgwLDMwMCkgc2NhbGUoMC4xMDAwMDAwMDE0OTAxMTYxMiwtMC4xMDAwMDAwMDE0OTAxMTYxMikiPiYjeGE7PHBhdGggaWQ9InN2Z18zIiBkPSJNNzMuNDMwMDU0ODE4NTE0OTYsMjc5My42ODEyMTY1NjYzNyBjLTAuNzM3NjYwMzQ2MDg5Mzc1MSwtMC41NzI4NTAyNDgxNjgwMDMgLTEuMjkwOTA1NjA1NjU2NDAwNiwtMzkuMzM1NzE3MDQwODY5MTU2IC0xLjI5MDkwNTYwNTY1NjQwMDYsLTg1LjkyNzUzNzIyNTE5OTYxIGwwLC04NC41OTA4ODY2NDYxNDA5NyBsMjIuMTI5ODEwMzgyNjgxMTA3LDAgbDIyLjEyOTgxMDM4MjY4MTEwNywwIGwwLDg1LjkyNzUzNzIyNTE5OTYxIGwwLDg1LjkyNzUzNzIyNTE5OTYxIGwtMjAuODM4OTA0Nzc3MDI0NzE2LDAgYy0xMS42MTgxNTA0NTA5MDc1ODEsMCAtMjEuNTc2NTY1MTIzMTE0MDg2LC0wLjU3Mjg1MDI0ODE2ODAwMyAtMjIuMTI5ODEwMzgyNjgxMTA3LC0xLjMzNjY1MDU3OTA1ODY2MzggeiIvPiYjeGE7PHBhdGggaWQ9InN2Z180IiBkPSJNMTUxLjQzNzYzNjQxNzQ2NTgyLDI3MDkuMjgxMjgwMDAyOTUgbDAsLTg2LjExODQ4NzMwNzkyMjM0IGwyMS4yMDc3MzQ5NTAwNjk0LDAgbDIxLjIwNzczNDk1MDA2OTQsMCBsMCwyOC42NDI1MTI0MDgzOTk4ODUgbDAsMjguNjQyNTEyNDA4Mzk5ODg1IGwxOS45MTY4MjkzNDQ0MTMwMSwwIGMxOC42MjU5MjM3Mzg3NTY2MDgsMCAzOC4zNTgzMzc5OTY2NDcyOCwzLjYyODA1MTU3MTczMDY1MjMgNDAuOTQwMTQ5MjA3OTYwMDU0LDcuNjM4MDAzMzA4OTA2NjMzIGMwLjU1MzI0NTI1OTU2NzAzMjcsMC43NjM4MDAzMzA4OTA2Njg2IDIuNzY2MjI2Mjk3ODM1MTQxNSwyLjI5MTQwMDk5MjY3MTk5MzQgNC45NzkyMDczMzYxMDMyNTI1LDMuNDM3MTAxNDg5MDA3OTg3NiBjNi4yNzAxMTI5NDE3NTk2NTIsMy42MjgwNTE1NzE3MzA2NTIzIDE1LjEyMjAzNzA5NDgzMjA4OCwyMS4zODY0MDkyNjQ5Mzg1NzUgMTYuNzgxNzcyODczNTMzMTgyLDMzLjk4OTExNDcyNDYzNDUzIGMzLjY4ODMwMTczMDQ0Njg1MzMsMjkuNzg4MjEyOTA0NzM1ODg2IC00LjYxMDM3NzE2MzA1ODU2OSw1MC4yMTk4NzE3NTYwNjExMiAtMjUuNjMzNjk3MDI2NjA1NjI0LDYxLjg2NzgyNjgwMjE0Mzc0IGwtMTEuODAyNTY1NTM3NDI5OTMzLDYuNjgzMjUyODk1MjkzMzAyIGwtNDMuNzA2Mzc1NTA1Nzk1MTgsMC41NzI4NTAyNDgxNjgwMDMgbC00My44OTA3OTA1OTIzMTc1MzYsMC43NjM4MDAzMzA4OTA2Njg2IGwwLC04Ni4xMTg0ODczMDc5MjIzNCB6bTc1Ljc5NDYwMDU2MDY4MjgxLDQ0LjEwOTQ2OTEwODkzNTgxIGM0LjI0MTU0Njk5MDAxMzg3OSwtNC43NzM3NTIwNjgwNjY2NDkgNS4zNDgwMzc1MDkxNDc5Mzk1LC04LjAxOTkwMzQ3NDM1MTk3IDUuMzQ4MDM3NTA5MTQ3OTM5NSwtMTQuNzAzMTU2MzY5NjQ1MjcgYzAsLTE3LjU2NzQwNzYxMDQ4NTI1OCAtNy4wMDc3NzMyODc4NDkwMiwtMjMuODY4NzYwMzQwMzMzMjMyIC0yNi43NDAxODc1NDU3Mzk2ODMsLTIzLjg2ODc2MDM0MDMzMzIzMiBsLTExLjk4Njk4MDYyMzk1MjI3NCwwIGwwLDIzLjEwNDk2MDAwOTQ0MjU3NSBsMCwyMy4xMDQ5NjAwMDk0NDI1NzUgbDE0LjAxNTU0NjU3NTY5ODAzNywtMC43NjM4MDAzMzA4OTA2Njg2IGMxMy4wOTM0NzExNDMwODYzMzEsLTAuNTcyODUwMjQ4MTY4MDAzIDE0LjM4NDM3Njc0ODc0MjcyOCwtMS4xNDU3MDA0OTYzMzU5OTc0IDE5LjM2MzU4NDA4NDg0NTk3LC02Ljg3NDIwMjk3ODAxNTk3MzUgeiIvPiYjeGE7PC9nPjxwYXRoIGNsYXNzPSIiIHN0eWxlPSJjb2xvcjogZ3JlZW47IiBkPSJNNDUuOTY1NTI5ODE1NDA4NjE1LDI2Ljg0MTkzNjM3NTc1MzUyMyBDNDUuMjE1MDAxOTAxMTM2MjcsMjIuNzI5OTMzODYyMzg5OTUgNDEuNjIzNzU3NjMzMzc0OTIsMTkuNjExNzQ0Nzk0ODMxNjYgMzcuMjk3MDkxNDE1NzE3NDMsMTkuNjExNzQ0Nzk0ODMxNjYgTDM3LjI5NzA5MTQxNTcxNzQzLDIyLjc5MTk0NzgyMTQwODIxIEM0MC40MTEzMDUyMjk0OTI1ODQsMjIuNzk2NzE4MTI1OTQ4MDY1IDQyLjkzMDAyNjAyNjU0MTAxNSwyNS4zMTcwMjkwMjQ1MTAxMDIgNDIuOTM3MTgxNDgzMzUxMDIsMjguNDMyMDM3ODg5MDQxODU1IEM0Mi45MzAwMjYwMjY1NDEwMTUsMzEuNTQ2MjUxNzAyODE2OTEgNDAuNDExMzA1MjI5NDkyNTg0LDM0LjA2NDk3MjQ5OTg2NTY5NiAzNy4yOTcwOTE0MTU3MTc0MywzNC4wNzEzMzI5MDU5MTg4MSBMMzcuMjk3MDkxNDE1NzE3NDMsMzcuMjUzMTI2MDM0MDA4Njk0IEM0MS42MjM3NTc2MzMzNzQ5MiwzNy4yNDk5NDU4MzA5ODIwNiA0NS4yMTUwMDE5MDExMzYyNywzNC4xMzE3NTY3NjM0MjM3NCA0NS45NjU1Mjk4MTU0MDg2MTUsMzAuMDIxMzQ0MzUxNTczNDk3IEw0OS42OTQzMTc4NjQwNjk3NSwzMC4wMjEzNDQzNTE1NzM0OTcgTDQ5LjY5NDMxNzg2NDA2OTc1LDI2Ljg0MTkzNjM3NTc1MzUyMyBMNDUuOTY1NTI5ODE1NDA4NjE1LDI2Ljg0MTkzNjM3NTc1MzUyMyB6TTQyLjI0MDcxNzAyMDUzMDc1LDI4LjQzMjAzNzg4OTA0MTg1NSBDNDIuMjQwNzE3MDIwNTMwNzUsMjUuNzAxMDM4NTM5OTY5MTQgNDAuMDI3Mjk1NzE0MDMzMTIsMjMuNDg3NjE3MjMzNDcxODUyIDM3LjI5NjI5NjM2NDk2MDc1LDIzLjQ4NzYxNzIzMzQ3MTg1MiBDMzUuMTIzNDIyNjQ3MDUyMTk1LDIzLjQ4NzYxNzIzMzQ3MTg1MiAzMy4yODEyOTAwNDM5MDc3OTUsMjQuODkxNjc2ODY5NzA1NDkyIDMyLjYxODIxNzcxMjg2NjU0LDI2Ljg0MTE0MTMyNDk5Njk0NyBMMjcuMTg0ODQwODQxOTYwMzk4LDI2Ljg0MTE0MTMyNDk5Njk0NyBMMjcuMTg0ODQwODQxOTYwMzk4LDMwLjAyMjEzOTQwMjMzMDE3MiBMMzIuNjE4MjE3NzEyODY2NTQsMzAuMDIyMTM5NDAyMzMwMTcyIEMzMy4yODA0OTQ5OTMxNTEwOTUsMzEuOTcxNjAzODU3NjIxNjczIDM1LjEyMjYyNzU5NjI5NTY4NiwzMy4zNzY0NTg1NDQ2MTE4NyAzNy4yOTYyOTYzNjQ5NjA3NSwzMy4zNzY0NTg1NDQ2MTE4NyBDNDAuMDI3Mjk1NzE0MDMzMTIsMzMuMzc2NDU4NTQ0NjExODcgNDIuMjQwNzE3MDIwNTMwNzUsMzEuMTYyMjQyMTg3MzU3ODIgNDIuMjQwNzE3MDIwNTMwNzUsMjguNDMyMDM3ODg5MDQxODU1IHoiIGlkPSJzdmdfMiIgbWFya2VyLWVuZD0iIiBtYXJrZXItbWlkPSIiIG1hcmtlci1zdGFydD0iIiBmaWxsLXJ1bGU9Im5vbnplcm8iIHN0cm9rZS1kYXNob2Zmc2V0PSIiIGZpbGw9ImdyZWVuIi8+PC9nPjwvc3ZnPg==;fontSize=9;" vertex="1" parent="1">
          <mxGeometry x="208" y="221" width="26" height="26" as="geometry" />
        </mxCell>
        <mxCell id="os4LgzAEuIEG7fqNAOku-248" style="edgeStyle=orthogonalEdgeStyle;rounded=0;orthogonalLoop=1;jettySize=auto;html=1;exitX=1;exitY=0.5;exitDx=0;exitDy=0;entryX=0;entryY=0.5;entryDx=0;entryDy=0;startArrow=classic;startFill=1;" edge="1" parent="1" source="os4LgzAEuIEG7fqNAOku-233" target="os4LgzAEuIEG7fqNAOku-243">
          <mxGeometry relative="1" as="geometry" />
        </mxCell>
        <mxCell id="os4LgzAEuIEG7fqNAOku-250" style="edgeStyle=orthogonalEdgeStyle;rounded=0;orthogonalLoop=1;jettySize=auto;html=1;exitX=0.75;exitY=1;exitDx=0;exitDy=0;entryX=0;entryY=0.5;entryDx=0;entryDy=0;startArrow=classic;startFill=1;" edge="1" parent="1" source="os4LgzAEuIEG7fqNAOku-233" target="os4LgzAEuIEG7fqNAOku-245">
          <mxGeometry relative="1" as="geometry" />
        </mxCell>
        <mxCell id="os4LgzAEuIEG7fqNAOku-233" value="jupyterhub" style="shape=image;verticalLabelPosition=bottom;verticalAlign=top;imageAspect=0;aspect=fixed;image=data:image/svg+xml,PHN2ZyB4bWxuczp4bGluaz0iaHR0cDovL3d3dy53My5vcmcvMTk5OS94bGluayIgeG1sbnM9Imh0dHA6Ly93d3cudzMub3JnLzIwMDAvc3ZnIiB2aWV3Qm94PSIwIDAgNTUgNTUiIGhlaWdodD0iNTUiIHdpZHRoPSI1NSIgdmVyc2lvbj0iMS4xIj4mI3hhOzxnIHN0eWxlPSIiIGNsYXNzPSJjdXJyZW50TGF5ZXIiPjx0aXRsZT5MYXllciAxPC90aXRsZT48Y2lyY2xlIGlkPSJzdmdfMiIgY3g9IjI4LjA0MDQzNDgzNzM0MTMxIiBjeT0iMjcuMzk1ODU0MDU1ODgxNSIgc3R5bGU9ImZpbGw6d2hpdGU7ZmlsbC1vcGFjaXR5PTAuMDtzdHJva2Utd2lkdGg6MztzdHJva2U6Z3JlZW4iIHI9IjI1IiBjbGFzcz0iZnJhbWUiLz48ZyBpZD0ic3ZnXzEiIGZpbGw9IndoaXRlIiBjbGFzcz0ibm9kZSI+JiN4YTsgICAgPHBhdGggZmlsbD0iZ3JlZW4iIGNsYXNzPSIiIGlkPSJzdmdfMyIgZD0iTTQwLjM1NTU1MzM4ODU5NTU4LDI5Ljk3MjIxNTM1MjQ1NjI0IHYtMTIuODU1NTU1MTc2NzM0OTI0IHEwLC0wLjIwMTczMzMyNzM4ODc2MzQ2IC0wLjE0NjM1NTU1MTI0MjgyODQyLC0wLjM0ODA4ODg3ODYzMTU5MjIgdC0wLjM0ODA4ODg3ODYzMTU5MjIsLTAuMTQ2MzU1NTUxMjQyODI4NDIgaC0yNC43MjIyMjE0OTM3MjEwMSBxLTAuMjAxNzMzMzI3Mzg4NzYzNDYsMCAtMC4zNDgwODg4Nzg2MzE1OTIyLDAuMTQ2MzU1NTUxMjQyODI4NDIgdC0wLjE0NjM1NTU1MTI0MjgyODQyLDAuMzQ4MDg4ODc4NjMxNTkyMiB2MTIuODU1NTU1MTc2NzM0OTI0IHEwLDAuMjAxNzMzMzI3Mzg4NzYzNDYgMC4xNDYzNTU1NTEyNDI4Mjg0MiwwLjM0ODA4ODg3ODYzMTU5MjIgdDAuMzQ4MDg4ODc4NjMxNTkyMiwwLjE0NjM1NTU1MTI0MjgyODQyIGgyNC43MjIyMjE0OTM3MjEwMSBxMC4yMDE3MzMzMjczODg3NjM0NiwwIDAuMzQ4MDg4ODc4NjMxNTkyMiwtMC4xNDYzNTU1NTEyNDI4Mjg0MiB0MC4xNDYzNTU1NTEyNDI4Mjg0MiwtMC4zNDgwODg4Nzg2MzE1OTIyIHpNNDIuMzMzMzMxMTA4MDkzMjYsMTcuMTE2NjYwMTc1NzIxMzE0IHYxNi44MTExMTA2MTU3MzAyODYgcTAsMS4wMjA1MzMzMDMyNjA4MDMzIC0wLjcyNTg0NDQyMzA1NTY0OTMsMS43NDYzNzc3MjYzMTY0NTI2IHQtMS43NDYzNzc3MjYzMTY0NTI2LDAuNzI1ODQ0NDIzMDU1NjQ5MyBoLTguNDA1NTU1MzA3ODY1MTQzIHEwLDAuNTcxNTc3NzYwOTM0ODI5NiAwLjI0NzIyMjIxNDkzNzIxMDE3LDEuMTk2NTU1NTIwMjk2MDk3MSB0MC40OTQ0NDQ0Mjk4NzQ0MjA1LDEuMDk3NjY2NjM0MzIxMjEzMSB0MC4yNDcyMjIyMTQ5MzcyMTAxNywwLjY3MjQ0NDQyNDYyOTIxMjQgcTAsMC40MDE0ODg4NzcwNTgwMjk1IC0wLjI5MjcxMTEwMjQ4NTY1Njg1LDAuNjk2MTc3NzU3MjYzMTg0OCB0LTAuNjk2MTc3NzU3MjYzMTg0OCwwLjI5MjcxMTEwMjQ4NTY1Njg1IGgtNy45MTExMTA4Nzc5OTA3MjMgcS0wLjQwMTQ4ODg3NzA1ODAyOTUsMCAtMC42OTYxNzc3NTcyNjMxODQ4LC0wLjI5MjcxMTEwMjQ4NTY1Njg1IHQtMC4yOTI3MTExMDI0ODU2NTY4NSwtMC42OTYxNzc3NTcyNjMxODQ4IHEwLC0wLjIxNTU3Nzc3MTQyNTI0NzI2IDAuMjQ3MjIyMjE0OTM3MjEwMTcsLTAuNjgwMzU1NTM1NTA3MjAyNiB0MC40OTQ0NDQ0Mjk4NzQ0MjA1LC0xLjA4MTg0NDQxMjU2NTIzMTMgdDAuMjQ3MjIyMjE0OTM3MjEwMTcsLTEuMjA0NDY2NjMxMTc0MDg4MSBoLTguNDA1NTU1MzA3ODY1MTQzIHEtMS4wMjA1MzMzMDMyNjA4MDMzLDAgLTEuNzQ2Mzc3NzI2MzE2NDUyNiwtMC43MjU4NDQ0MjMwNTU2NDkzIHQtMC43MjU4NDQ0MjMwNTU2NDkzLC0xLjc0NjM3NzcyNjMxNjQ1MjYgdi0xNi44MTExMTA2MTU3MzAyODYgcTAsLTEuMDIwNTMzMzAzMjYwODAzMyAwLjcyNTg0NDQyMzA1NTY0OTMsLTEuNzQ2Mzc3NzI2MzE2NDUyNiB0MS43NDYzNzc3MjYzMTY0NTI2LC0wLjcyNTg0NDQyMzA1NTY0OTMgaDI0LjcyMjIyMTQ5MzcyMTAxIHExLjAyMDUzMzMwMzI2MDgwMzMsMCAxLjc0NjM3NzcyNjMxNjQ1MjYsMC43MjU4NDQ0MjMwNTU2NDkzIHQwLjcyNTg0NDQyMzA1NTY0OTMsMS43NDYzNzc3MjYzMTY0NTI2IHoiLz48L2c+PC9nPjwvc3ZnPg==;fontSize=9;strokeWidth=3;" vertex="1" parent="1">
          <mxGeometry x="292.5" y="269" width="37.5" height="37.5" as="geometry" />
        </mxCell>
        <mxCell id="os4LgzAEuIEG7fqNAOku-237" value="" style="rounded=0;whiteSpace=wrap;html=1;fillColor=none;dashed=1;dashPattern=1 4;strokeColor=#d71d1d;" vertex="1" parent="1">
          <mxGeometry x="380" y="180" width="150" height="240" as="geometry" />
        </mxCell>
        <mxCell id="os4LgzAEuIEG7fqNAOku-238" value="notebook-secgroup" style="text;strokeColor=none;align=center;fillColor=none;html=1;verticalAlign=middle;whiteSpace=wrap;rounded=0;fontSize=9;" vertex="1" parent="1">
          <mxGeometry x="398.75" y="182.5" width="81.25" height="15" as="geometry" />
        </mxCell>
        <mxCell id="os4LgzAEuIEG7fqNAOku-239" value="" style="shape=image;verticalLabelPosition=bottom;verticalAlign=top;imageAspect=0;aspect=fixed;image=data:image/svg+xml,PHN2ZyB4bWxuczp4bGluaz0iaHR0cDovL3d3dy53My5vcmcvMTk5OS94bGluayIgeG1sbnM9Imh0dHA6Ly93d3cudzMub3JnLzIwMDAvc3ZnIiB2aWV3Qm94PSIwIDAgNTUgNTUiIGhlaWdodD0iNTUiIHdpZHRoPSI1NSIgdmVyc2lvbj0iMS4xIj4mI3hhOzxnIHN0eWxlPSIiIGNsYXNzPSJjdXJyZW50TGF5ZXIiPjx0aXRsZT5MYXllciAxPC90aXRsZT48ZyBpZD0ic3ZnXzEiIGZpbGw9IndoaXRlIiBjbGFzcz0ibm9kZSI+JiN4YTsgICAgPGNpcmNsZSBpZD0ic3ZnXzIiIGN4PSIyOC4wNDA0MzQ4MzczNDEzMSIgY3k9IjI3LjM5NTg1NDA1NTg4MTUiIHN0eWxlPSJmaWxsOndoaXRlO2ZpbGwtb3BhY2l0eT0wLjA7c3Ryb2tlLXdpZHRoOjM7c3Ryb2tlOmJsYWNrIiByPSIyNSIgY2xhc3M9ImZyYW1lIi8+PHBhdGggY2xhc3M9InNlbGVjdGVkIiBpZD0ic3ZnXzEiIGZpbGw9ImJsYWNrIiBkPSJNMzYuOTUxMjYzMzI1MDkyNCwzMC4zMTgxODUzMjAzMDgwMzIgdi0xMy4xODE4MTI3NjYzODc2MjggaC05LjIyNzI2ODkzNjQ3MTM0IHYyMy40MTg4MDg1NjA3NjQyNiBxMi40NTE4MTcxNzQ1NDgwOTg4LC0xLjI5NzA5MDM3NjIxMjU0MzIgNC4zODY5MDcyODg2NTM4MDMsLTIuODIwOTA3OTMyMDA2OTUyNiBxNC44NDAzNjE2NDc4MTc1MzgsLTMuNzkxMDg5MzUxNjEzMDgyIDQuODQwMzYxNjQ3ODE3NTM4LC03LjQxMzQ1MTQ5OTgxNjQwMyB6TTQwLjkwNTgwNzE1NTAwODY5LDE0LjUwMDAxMDAwMDY0Mjg4MSB2MTUuODE4MTc1MzE5NjY1MTUzIHEwLDEuNzcxNjM1NjM1ODAyNDk3NiAtMC42OTA3MjY5ODg5NTg3MTE3LDMuNTExNjM0OTIwOTY1NjYyOCB0LTEuNzA4MzYyOTM0NTIzODM3MSwzLjA4OTgxNjkxMjQ0MTI2IHQtMi40MzA3MjYyNzQxMjE4Nzg1LDIuNjI1ODE3MTAzMDY0NDE1MyB0LTIuNjA0NzI2MjAyNjM4MTk1NCwyLjEyMjI3MTg1NTM4ODQwNzcgdC0yLjQ5MTM2MjYxMjg0NzI2MjMsMS41OTQ5OTkzNDQ3MzI5MDM2IHQtMS44NDI4MTc0MjQ3NDA5OTE0LDEuMDIwMjcyMzA4MTE4NDAzIHQtMC44NzUyNzIzNjc2ODgxMzk0LDAuNDExMjcyNTU4MzExMjk0NyBxLTAuMjQ3ODE4MDgwMDA4MDg3NzgsMC4xMjM5MDkwNDAwMDQwNDM4NyAtMC41MzUxODE1OTgzMTUzMzgyLDAuMTIzOTA5MDQwMDA0MDQzODcgdC0wLjUzNTE4MTU5ODMxNTMzODIsLTAuMTIzOTA5MDQwMDA0MDQzODcgcS0wLjMyOTU0NTMxOTE1OTY5MTI2LC0wLjE0NDk5OTk0MDQzMDI2NDM3IC0wLjg3NTI3MjM2NzY4ODEzOTQsLTAuNDExMjcyNTU4MzExMjk0NyB0LTEuODQyODE3NDI0NzQwOTkxNCwtMS4wMjAyNzIzMDgxMTg0MDMgdC0yLjQ5MTM2MjYxMjg0NzI2MjMsLTEuNTk0OTk5MzQ0NzMyOTAzNiB0LTIuNjA0NzI2MjAyNjM4MTk1NCwtMi4xMjIyNzE4NTUzODg0MDc3IHQtMi40MzA3MjYyNzQxMjE4Nzg1LC0yLjYyNTgxNzEwMzA2NDQxNTMgdC0xLjcwODM2MjkzNDUyMzgzNzEsLTMuMDg5ODE2OTEyNDQxMjYgdC0wLjY5MDcyNjk4ODk1ODcxMTcsLTMuNTExNjM0OTIwOTY1NjYyOCB2LTE1LjgxODE3NTMxOTY2NTE1MyBxMCwtMC41MzUxODE1OTgzMTUzMzgyIDAuMzkwMTgxNjU3ODg1MDc0MSwtMC45Mjc5OTk2MTg3NTM2ODkzIHQwLjkyNzk5OTYxODc1MzY4OTMsLTAuMzkwMTgxNjU3ODg1MDc0MSBoMjMuNzI3MjYyOTc5NDk3NzMgcTAuNTM1MTgxNTk4MzE1MzM4MiwwIDAuOTI3OTk5NjE4NzUzNjg5MywwLjM5MDE4MTY1Nzg4NTA3NDEgdDAuMzkwMTgxNjU3ODg1MDc0MSwwLjkyNzk5OTYxODc1MzY4OTMgeiIvPjwvZz48L2c+PC9zdmc+" vertex="1" parent="1">
          <mxGeometry x="381.25000000000006" y="181.25" width="17.5" height="17.5" as="geometry" />
        </mxCell>
        <mxCell id="os4LgzAEuIEG7fqNAOku-240" value="" style="shape=image;verticalLabelPosition=bottom;verticalAlign=top;imageAspect=0;aspect=fixed;image=data:image/svg+xml,PHN2ZyB4bWxuczp4bGluaz0iaHR0cDovL3d3dy53My5vcmcvMTk5OS94bGluayIgeG1sbnM9Imh0dHA6Ly93d3cudzMub3JnLzIwMDAvc3ZnIiB2aWV3Qm94PSIwIDAgNTUgNTUiIGhlaWdodD0iNTUiIHdpZHRoPSI1NSIgdmVyc2lvbj0iMS4xIj4mI3hhOzxnIHN0eWxlPSIiIGNsYXNzPSJjdXJyZW50TGF5ZXIiPjx0aXRsZT5MYXllciAxPC90aXRsZT48ZyBpZD0ic3ZnXzEiIGZpbGw9IndoaXRlIiBjbGFzcz0ibm9kZSI+JiN4YTsgICAgPGNpcmNsZSBpZD0ic3ZnXzIiIGN4PSIyOC4wNDA0MzQ4MzczNDEzMSIgY3k9IjI3LjM5NTg1NDA1NTg4MTUiIHN0eWxlPSJmaWxsOndoaXRlO2ZpbGwtb3BhY2l0eT0wLjA7c3Ryb2tlLXdpZHRoOjM7c3Ryb2tlOiNDODIxMjgiIHI9IjI1IiBjbGFzcz0iZnJhbWUiLz48cGF0aCBjbGFzcz0ic2VsZWN0ZWQiIGlkPSJzdmdfMSIgZmlsbD0iI0M4MjEyOCIgZD0iTTM2Ljk1MTI2MzMyNTA5MjQsMzAuMzE4MTg1MzIwMzA4MDMyIHYtMTMuMTgxODEyNzY2Mzg3NjI4IGgtOS4yMjcyNjg5MzY0NzEzNCB2MjMuNDE4ODA4NTYwNzY0MjYgcTIuNDUxODE3MTc0NTQ4MDk4OCwtMS4yOTcwOTAzNzYyMTI1NDMyIDQuMzg2OTA3Mjg4NjUzODAzLC0yLjgyMDkwNzkzMjAwNjk1MjYgcTQuODQwMzYxNjQ3ODE3NTM4LC0zLjc5MTA4OTM1MTYxMzA4MiA0Ljg0MDM2MTY0NzgxNzUzOCwtNy40MTM0NTE0OTk4MTY0MDMgek00MC45MDU4MDcxNTUwMDg2OSwxNC41MDAwMTAwMDA2NDI4ODEgdjE1LjgxODE3NTMxOTY2NTE1MyBxMCwxLjc3MTYzNTYzNTgwMjQ5NzYgLTAuNjkwNzI2OTg4OTU4NzExNywzLjUxMTYzNDkyMDk2NTY2MjggdC0xLjcwODM2MjkzNDUyMzgzNzEsMy4wODk4MTY5MTI0NDEyNiB0LTIuNDMwNzI2Mjc0MTIxODc4NSwyLjYyNTgxNzEwMzA2NDQxNTMgdC0yLjYwNDcyNjIwMjYzODE5NTQsMi4xMjIyNzE4NTUzODg0MDc3IHQtMi40OTEzNjI2MTI4NDcyNjIzLDEuNTk0OTk5MzQ0NzMyOTAzNiB0LTEuODQyODE3NDI0NzQwOTkxNCwxLjAyMDI3MjMwODExODQwMyB0LTAuODc1MjcyMzY3Njg4MTM5NCwwLjQxMTI3MjU1ODMxMTI5NDcgcS0wLjI0NzgxODA4MDAwODA4Nzc4LDAuMTIzOTA5MDQwMDA0MDQzODcgLTAuNTM1MTgxNTk4MzE1MzM4MiwwLjEyMzkwOTA0MDAwNDA0Mzg3IHQtMC41MzUxODE1OTgzMTUzMzgyLC0wLjEyMzkwOTA0MDAwNDA0Mzg3IHEtMC4zMjk1NDUzMTkxNTk2OTEyNiwtMC4xNDQ5OTk5NDA0MzAyNjQzNyAtMC44NzUyNzIzNjc2ODgxMzk0LC0wLjQxMTI3MjU1ODMxMTI5NDcgdC0xLjg0MjgxNzQyNDc0MDk5MTQsLTEuMDIwMjcyMzA4MTE4NDAzIHQtMi40OTEzNjI2MTI4NDcyNjIzLC0xLjU5NDk5OTM0NDczMjkwMzYgdC0yLjYwNDcyNjIwMjYzODE5NTQsLTIuMTIyMjcxODU1Mzg4NDA3NyB0LTIuNDMwNzI2Mjc0MTIxODc4NSwtMi42MjU4MTcxMDMwNjQ0MTUzIHQtMS43MDgzNjI5MzQ1MjM4MzcxLC0zLjA4OTgxNjkxMjQ0MTI2IHQtMC42OTA3MjY5ODg5NTg3MTE3LC0zLjUxMTYzNDkyMDk2NTY2Mjggdi0xNS44MTgxNzUzMTk2NjUxNTMgcTAsLTAuNTM1MTgxNTk4MzE1MzM4MiAwLjM5MDE4MTY1Nzg4NTA3NDEsLTAuOTI3OTk5NjE4NzUzNjg5MyB0MC45Mjc5OTk2MTg3NTM2ODkzLC0wLjM5MDE4MTY1Nzg4NTA3NDEgaDIzLjcyNzI2Mjk3OTQ5NzczIHEwLjUzNTE4MTU5ODMxNTMzODIsMCAwLjkyNzk5OTYxODc1MzY4OTMsMC4zOTAxODE2NTc4ODUwNzQxIHQwLjM5MDE4MTY1Nzg4NTA3NDEsMC45Mjc5OTk2MTg3NTM2ODkzIHoiLz48L2c+PC9nPjwvc3ZnPg==" vertex="1" parent="1">
          <mxGeometry x="380" y="181.25" width="19.62" height="19.62" as="geometry" />
        </mxCell>
        <mxCell id="os4LgzAEuIEG7fqNAOku-242" value="." style="shape=image;verticalLabelPosition=bottom;verticalAlign=top;imageAspect=0;aspect=fixed;image=data:image/svg+xml,PHN2ZyB4bWxucz0iaHR0cDovL3d3dy53My5vcmcvMjAwMC9zdmciIHZpZXdCb3g9IjAgMCA1NSA1NSIgaGVpZ2h0PSI1NSIgd2lkdGg9IjU1Ij4mI3hhOzxnIHN0eWxlPSIiIGNsYXNzPSJjdXJyZW50TGF5ZXIiPjx0aXRsZT5MYXllciAxPC90aXRsZT4mI3hhOyAgICA8Y2lyY2xlIGlkPSJzdmdfMiIgY3g9IjI4LjA0MDQzNDgzNzM0MTMxIiBjeT0iMjcuMzk1ODU0MDU1ODgxNSIgc3R5bGU9ImZpbGw6d2hpdGU7ZmlsbC1vcGFjaXR5PTAuMDtzdHJva2Utd2lkdGg6MztzdHJva2U6YmxhY2siIHI9IjI1IiBjbGFzcz0iZnJhbWUiLz48ZyBpZD0ic3ZnXzEiIGZpbGw9IndoaXRlIiBjbGFzcz0ibm9kZSI+JiN4YTsgICAgPHBhdGggaWQ9InN2Z18zIiBmaWxsPSJibGFjayIgZD0ibTQwLjc5NDcyMDU0NDE1MTA2LDI4LjY5MTg1NDEwNzM3OTkxIGwtMTAuMjU4Mjg2ODA3NjI3Njc5LDAgbDAsMTAuMjU4Mjg1NjA3NjI3NjMgbDIuNDk2MDAwMDk5MTgyMTI5LC0yLjQ5NTk5NzY5OTE4MjAzMyBsNy41NzAyODY3MDA4MTYxNTUsNy41NzAyODQzMDA4MTYwNiBsNS4yNjYyODQyMDkyNjMzMjUsLTUuMjY2Mjg2NjA5MjYzNDIgbC03LjU3MDI4NTUwMDgxNjEwNiwtNy41NzAyODQzMDA4MTYwNiB6bS0yNS41MDg1NzI0OTM2MTk1NjQsLTQuOTkxOTk4OTk4MzY0MjExNSBsMTAuMjU4Mjg1NDg3NjI3NjI0LDAgbDAsLTEwLjI1ODI4NzE2NzYyNzY5MiBsLTIuNDk2MDAwMDk5MTgyMTI5LDIuNDk2MDAwMDk5MTgyMTI5IEwxNS40NzgxNDgwNTgxNjA4OTcsOC4zNjcyODE2MTU3NTM5OTYgTDEwLjIxMTg2MjY0ODg5NzUyMiwxMy42MzM1Njc5NDkwMTc0MDQgTDE3Ljc4MjE0ODE0OTcxMzYzNSwyMS4yMDM4NTM4MDk4MzM1MzIgem0tMy43MzAyODUzNDgyMjgyMTYzLDguNzIyMjg1NTQ2NTkyNDc0IGwwLDEwLjI1ODI4NTYwNzYyNzYzIGwxMC4yNTgyODU0ODc2Mjc2MjQsMCBMMTkuMzE4MTQ4MjEwNzQ4Nzg4LDQwLjE4NDQyNzM2NDA1MzczIEwyNi44ODg0MzM1OTE1NjQ4OSwzMi41ODY3MTIyNjIxNDc2NyBMMjEuNjQ5NTc2NTgzMzkxNDIyLDI3LjM0Nzg1NDA1Mzk3NDE0NiBMMTQuMDUxODYyODAxNDg1NDEzLDM0LjkxODE0MTk1NDc5MDM3IHpNNDQuNTI1MDA1ODkyMzc5MjgsMTkuOTY5NTY4MzIwNzg3NDM1IGwwLC0xMC4yNTgyODYxNzE2Mjc2NTMgbC0xMC4yNTgyODY4MDc2Mjc2NzksMCBsMi40OTYwMDAwOTkxODIxMjksMi40OTU5OTk5NDMxODIxMjI1IGwtNy41NzAyODU1MDA4MTYxMDYsNy41NzAyODYyMjA4MTYxMzYgbDUuMjY2Mjg2NjA5MjYzNDIsNS4yNjYyODY4NDkyNjM0MyBsNy41NzAyODU1MDA4MTYxMDYsLTcuNTcwMjg3MDYwODE2MTY4NSB6IiBjbGFzcz0ic3ZncGF0aCIvPiYjeGE7ICA8L2c+PC9nPjwvc3ZnPg==" vertex="1" parent="1">
          <mxGeometry x="205.5" y="330" width="30" height="30" as="geometry" />
        </mxCell>
        <mxCell id="os4LgzAEuIEG7fqNAOku-243" value="jhub-user1-JHKFG" style="shape=image;verticalLabelPosition=bottom;verticalAlign=top;imageAspect=0;aspect=fixed;image=data:image/svg+xml,PHN2ZyB4bWxuczp4bGluaz0iaHR0cDovL3d3dy53My5vcmcvMTk5OS94bGluayIgeG1sbnM9Imh0dHA6Ly93d3cudzMub3JnLzIwMDAvc3ZnIiB2aWV3Qm94PSIwIDAgNTUgNTUiIGhlaWdodD0iNTUiIHdpZHRoPSI1NSIgdmVyc2lvbj0iMS4xIj4mI3hhOzxnIHN0eWxlPSIiIGNsYXNzPSJjdXJyZW50TGF5ZXIiPjx0aXRsZT5MYXllciAxPC90aXRsZT48Y2lyY2xlIGlkPSJzdmdfMiIgY3g9IjI4LjA0MDQzNDgzNzM0MTMxIiBjeT0iMjcuMzk1ODU0MDU1ODgxNSIgc3R5bGU9ImZpbGw6d2hpdGU7ZmlsbC1vcGFjaXR5PTAuMDtzdHJva2Utd2lkdGg6MztzdHJva2U6I0M4MjEyOCIgcj0iMjUiIGNsYXNzPSJmcmFtZSIvPjxnIGlkPSJzdmdfMSIgZmlsbD0id2hpdGUiIGNsYXNzPSJub2RlIj4mI3hhOyAgICA8cGF0aCBmaWxsPSIjQzgyMTI4IiBjbGFzcz0iIiBpZD0ic3ZnXzMiIGQ9Ik00MC4zNTU1NTMzODg1OTU1OCwyOS45NzIyMTUzNTI0NTYyNCB2LTEyLjg1NTU1NTE3NjczNDkyNCBxMCwtMC4yMDE3MzMzMjczODg3NjM0NiAtMC4xNDYzNTU1NTEyNDI4Mjg0MiwtMC4zNDgwODg4Nzg2MzE1OTIyIHQtMC4zNDgwODg4Nzg2MzE1OTIyLC0wLjE0NjM1NTU1MTI0MjgyODQyIGgtMjQuNzIyMjIxNDkzNzIxMDEgcS0wLjIwMTczMzMyNzM4ODc2MzQ2LDAgLTAuMzQ4MDg4ODc4NjMxNTkyMiwwLjE0NjM1NTU1MTI0MjgyODQyIHQtMC4xNDYzNTU1NTEyNDI4Mjg0MiwwLjM0ODA4ODg3ODYzMTU5MjIgdjEyLjg1NTU1NTE3NjczNDkyNCBxMCwwLjIwMTczMzMyNzM4ODc2MzQ2IDAuMTQ2MzU1NTUxMjQyODI4NDIsMC4zNDgwODg4Nzg2MzE1OTIyIHQwLjM0ODA4ODg3ODYzMTU5MjIsMC4xNDYzNTU1NTEyNDI4Mjg0MiBoMjQuNzIyMjIxNDkzNzIxMDEgcTAuMjAxNzMzMzI3Mzg4NzYzNDYsMCAwLjM0ODA4ODg3ODYzMTU5MjIsLTAuMTQ2MzU1NTUxMjQyODI4NDIgdDAuMTQ2MzU1NTUxMjQyODI4NDIsLTAuMzQ4MDg4ODc4NjMxNTkyMiB6TTQyLjMzMzMzMTEwODA5MzI2LDE3LjExNjY2MDE3NTcyMTMxNCB2MTYuODExMTEwNjE1NzMwMjg2IHEwLDEuMDIwNTMzMzAzMjYwODAzMyAtMC43MjU4NDQ0MjMwNTU2NDkzLDEuNzQ2Mzc3NzI2MzE2NDUyNiB0LTEuNzQ2Mzc3NzI2MzE2NDUyNiwwLjcyNTg0NDQyMzA1NTY0OTMgaC04LjQwNTU1NTMwNzg2NTE0MyBxMCwwLjU3MTU3Nzc2MDkzNDgyOTYgMC4yNDcyMjIyMTQ5MzcyMTAxNywxLjE5NjU1NTUyMDI5NjA5NzEgdDAuNDk0NDQ0NDI5ODc0NDIwNSwxLjA5NzY2NjYzNDMyMTIxMzEgdDAuMjQ3MjIyMjE0OTM3MjEwMTcsMC42NzI0NDQ0MjQ2MjkyMTI0IHEwLDAuNDAxNDg4ODc3MDU4MDI5NSAtMC4yOTI3MTExMDI0ODU2NTY4NSwwLjY5NjE3Nzc1NzI2MzE4NDggdC0wLjY5NjE3Nzc1NzI2MzE4NDgsMC4yOTI3MTExMDI0ODU2NTY4NSBoLTcuOTExMTEwODc3OTkwNzIzIHEtMC40MDE0ODg4NzcwNTgwMjk1LDAgLTAuNjk2MTc3NzU3MjYzMTg0OCwtMC4yOTI3MTExMDI0ODU2NTY4NSB0LTAuMjkyNzExMTAyNDg1NjU2ODUsLTAuNjk2MTc3NzU3MjYzMTg0OCBxMCwtMC4yMTU1Nzc3NzE0MjUyNDcyNiAwLjI0NzIyMjIxNDkzNzIxMDE3LC0wLjY4MDM1NTUzNTUwNzIwMjYgdDAuNDk0NDQ0NDI5ODc0NDIwNSwtMS4wODE4NDQ0MTI1NjUyMzEzIHQwLjI0NzIyMjIxNDkzNzIxMDE3LC0xLjIwNDQ2NjYzMTE3NDA4ODEgaC04LjQwNTU1NTMwNzg2NTE0MyBxLTEuMDIwNTMzMzAzMjYwODAzMywwIC0xLjc0NjM3NzcyNjMxNjQ1MjYsLTAuNzI1ODQ0NDIzMDU1NjQ5MyB0LTAuNzI1ODQ0NDIzMDU1NjQ5MywtMS43NDYzNzc3MjYzMTY0NTI2IHYtMTYuODExMTEwNjE1NzMwMjg2IHEwLC0xLjAyMDUzMzMwMzI2MDgwMzMgMC43MjU4NDQ0MjMwNTU2NDkzLC0xLjc0NjM3NzcyNjMxNjQ1MjYgdDEuNzQ2Mzc3NzI2MzE2NDUyNiwtMC43MjU4NDQ0MjMwNTU2NDkzIGgyNC43MjIyMjE0OTM3MjEwMSBxMS4wMjA1MzMzMDMyNjA4MDMzLDAgMS43NDYzNzc3MjYzMTY0NTI2LDAuNzI1ODQ0NDIzMDU1NjQ5MyB0MC43MjU4NDQ0MjMwNTU2NDkzLDEuNzQ2Mzc3NzI2MzE2NDUyNiB6Ii8+PC9nPjwvZz48L3N2Zz4=;fontSize=10;strokeWidth=2;" vertex="1" parent="1">
          <mxGeometry x="430" y="213" width="30" height="30" as="geometry" />
        </mxCell>
        <mxCell id="os4LgzAEuIEG7fqNAOku-244" value="jhub-user2-ABGFG" style="shape=image;verticalLabelPosition=bottom;verticalAlign=top;imageAspect=0;aspect=fixed;image=data:image/svg+xml,PHN2ZyB4bWxuczp4bGluaz0iaHR0cDovL3d3dy53My5vcmcvMTk5OS94bGluayIgeG1sbnM9Imh0dHA6Ly93d3cudzMub3JnLzIwMDAvc3ZnIiB2aWV3Qm94PSIwIDAgNTUgNTUiIGhlaWdodD0iNTUiIHdpZHRoPSI1NSIgdmVyc2lvbj0iMS4xIj4mI3hhOzxnIHN0eWxlPSIiIGNsYXNzPSJjdXJyZW50TGF5ZXIiPjx0aXRsZT5MYXllciAxPC90aXRsZT48Y2lyY2xlIGlkPSJzdmdfMiIgY3g9IjI4LjA0MDQzNDgzNzM0MTMxIiBjeT0iMjcuMzk1ODU0MDU1ODgxNSIgc3R5bGU9ImZpbGw6d2hpdGU7ZmlsbC1vcGFjaXR5PTAuMDtzdHJva2Utd2lkdGg6MztzdHJva2U6I0M4MjEyOCIgcj0iMjUiIGNsYXNzPSJmcmFtZSIvPjxnIGlkPSJzdmdfMSIgZmlsbD0id2hpdGUiIGNsYXNzPSJub2RlIj4mI3hhOyAgICA8cGF0aCBmaWxsPSIjQzgyMTI4IiBjbGFzcz0iIiBpZD0ic3ZnXzMiIGQ9Ik00MC4zNTU1NTMzODg1OTU1OCwyOS45NzIyMTUzNTI0NTYyNCB2LTEyLjg1NTU1NTE3NjczNDkyNCBxMCwtMC4yMDE3MzMzMjczODg3NjM0NiAtMC4xNDYzNTU1NTEyNDI4Mjg0MiwtMC4zNDgwODg4Nzg2MzE1OTIyIHQtMC4zNDgwODg4Nzg2MzE1OTIyLC0wLjE0NjM1NTU1MTI0MjgyODQyIGgtMjQuNzIyMjIxNDkzNzIxMDEgcS0wLjIwMTczMzMyNzM4ODc2MzQ2LDAgLTAuMzQ4MDg4ODc4NjMxNTkyMiwwLjE0NjM1NTU1MTI0MjgyODQyIHQtMC4xNDYzNTU1NTEyNDI4Mjg0MiwwLjM0ODA4ODg3ODYzMTU5MjIgdjEyLjg1NTU1NTE3NjczNDkyNCBxMCwwLjIwMTczMzMyNzM4ODc2MzQ2IDAuMTQ2MzU1NTUxMjQyODI4NDIsMC4zNDgwODg4Nzg2MzE1OTIyIHQwLjM0ODA4ODg3ODYzMTU5MjIsMC4xNDYzNTU1NTEyNDI4Mjg0MiBoMjQuNzIyMjIxNDkzNzIxMDEgcTAuMjAxNzMzMzI3Mzg4NzYzNDYsMCAwLjM0ODA4ODg3ODYzMTU5MjIsLTAuMTQ2MzU1NTUxMjQyODI4NDIgdDAuMTQ2MzU1NTUxMjQyODI4NDIsLTAuMzQ4MDg4ODc4NjMxNTkyMiB6TTQyLjMzMzMzMTEwODA5MzI2LDE3LjExNjY2MDE3NTcyMTMxNCB2MTYuODExMTEwNjE1NzMwMjg2IHEwLDEuMDIwNTMzMzAzMjYwODAzMyAtMC43MjU4NDQ0MjMwNTU2NDkzLDEuNzQ2Mzc3NzI2MzE2NDUyNiB0LTEuNzQ2Mzc3NzI2MzE2NDUyNiwwLjcyNTg0NDQyMzA1NTY0OTMgaC04LjQwNTU1NTMwNzg2NTE0MyBxMCwwLjU3MTU3Nzc2MDkzNDgyOTYgMC4yNDcyMjIyMTQ5MzcyMTAxNywxLjE5NjU1NTUyMDI5NjA5NzEgdDAuNDk0NDQ0NDI5ODc0NDIwNSwxLjA5NzY2NjYzNDMyMTIxMzEgdDAuMjQ3MjIyMjE0OTM3MjEwMTcsMC42NzI0NDQ0MjQ2MjkyMTI0IHEwLDAuNDAxNDg4ODc3MDU4MDI5NSAtMC4yOTI3MTExMDI0ODU2NTY4NSwwLjY5NjE3Nzc1NzI2MzE4NDggdC0wLjY5NjE3Nzc1NzI2MzE4NDgsMC4yOTI3MTExMDI0ODU2NTY4NSBoLTcuOTExMTEwODc3OTkwNzIzIHEtMC40MDE0ODg4NzcwNTgwMjk1LDAgLTAuNjk2MTc3NzU3MjYzMTg0OCwtMC4yOTI3MTExMDI0ODU2NTY4NSB0LTAuMjkyNzExMTAyNDg1NjU2ODUsLTAuNjk2MTc3NzU3MjYzMTg0OCBxMCwtMC4yMTU1Nzc3NzE0MjUyNDcyNiAwLjI0NzIyMjIxNDkzNzIxMDE3LC0wLjY4MDM1NTUzNTUwNzIwMjYgdDAuNDk0NDQ0NDI5ODc0NDIwNSwtMS4wODE4NDQ0MTI1NjUyMzEzIHQwLjI0NzIyMjIxNDkzNzIxMDE3LC0xLjIwNDQ2NjYzMTE3NDA4ODEgaC04LjQwNTU1NTMwNzg2NTE0MyBxLTEuMDIwNTMzMzAzMjYwODAzMywwIC0xLjc0NjM3NzcyNjMxNjQ1MjYsLTAuNzI1ODQ0NDIzMDU1NjQ5MyB0LTAuNzI1ODQ0NDIzMDU1NjQ5MywtMS43NDYzNzc3MjYzMTY0NTI2IHYtMTYuODExMTEwNjE1NzMwMjg2IHEwLC0xLjAyMDUzMzMwMzI2MDgwMzMgMC43MjU4NDQ0MjMwNTU2NDkzLC0xLjc0NjM3NzcyNjMxNjQ1MjYgdDEuNzQ2Mzc3NzI2MzE2NDUyNiwtMC43MjU4NDQ0MjMwNTU2NDkzIGgyNC43MjIyMjE0OTM3MjEwMSBxMS4wMjA1MzMzMDMyNjA4MDMzLDAgMS43NDYzNzc3MjYzMTY0NTI2LDAuNzI1ODQ0NDIzMDU1NjQ5MyB0MC43MjU4NDQ0MjMwNTU2NDkzLDEuNzQ2Mzc3NzI2MzE2NDUyNiB6Ii8+PC9nPjwvZz48L3N2Zz4=;fontSize=10;strokeWidth=2;" vertex="1" parent="1">
          <mxGeometry x="430" y="282" width="30" height="30" as="geometry" />
        </mxCell>
        <mxCell id="os4LgzAEuIEG7fqNAOku-245" value="jhub-user42-RAVCL" style="shape=image;verticalLabelPosition=bottom;verticalAlign=top;imageAspect=0;aspect=fixed;image=data:image/svg+xml,PHN2ZyB4bWxuczp4bGluaz0iaHR0cDovL3d3dy53My5vcmcvMTk5OS94bGluayIgeG1sbnM9Imh0dHA6Ly93d3cudzMub3JnLzIwMDAvc3ZnIiB2aWV3Qm94PSIwIDAgNTUgNTUiIGhlaWdodD0iNTUiIHdpZHRoPSI1NSIgdmVyc2lvbj0iMS4xIj4mI3hhOzxnIHN0eWxlPSIiIGNsYXNzPSJjdXJyZW50TGF5ZXIiPjx0aXRsZT5MYXllciAxPC90aXRsZT48Y2lyY2xlIGlkPSJzdmdfMiIgY3g9IjI4LjA0MDQzNDgzNzM0MTMxIiBjeT0iMjcuMzk1ODU0MDU1ODgxNSIgc3R5bGU9ImZpbGw6d2hpdGU7ZmlsbC1vcGFjaXR5PTAuMDtzdHJva2Utd2lkdGg6MztzdHJva2U6I0M4MjEyOCIgcj0iMjUiIGNsYXNzPSJmcmFtZSIvPjxnIGlkPSJzdmdfMSIgZmlsbD0id2hpdGUiIGNsYXNzPSJub2RlIj4mI3hhOyAgICA8cGF0aCBmaWxsPSIjQzgyMTI4IiBjbGFzcz0iIiBpZD0ic3ZnXzMiIGQ9Ik00MC4zNTU1NTMzODg1OTU1OCwyOS45NzIyMTUzNTI0NTYyNCB2LTEyLjg1NTU1NTE3NjczNDkyNCBxMCwtMC4yMDE3MzMzMjczODg3NjM0NiAtMC4xNDYzNTU1NTEyNDI4Mjg0MiwtMC4zNDgwODg4Nzg2MzE1OTIyIHQtMC4zNDgwODg4Nzg2MzE1OTIyLC0wLjE0NjM1NTU1MTI0MjgyODQyIGgtMjQuNzIyMjIxNDkzNzIxMDEgcS0wLjIwMTczMzMyNzM4ODc2MzQ2LDAgLTAuMzQ4MDg4ODc4NjMxNTkyMiwwLjE0NjM1NTU1MTI0MjgyODQyIHQtMC4xNDYzNTU1NTEyNDI4Mjg0MiwwLjM0ODA4ODg3ODYzMTU5MjIgdjEyLjg1NTU1NTE3NjczNDkyNCBxMCwwLjIwMTczMzMyNzM4ODc2MzQ2IDAuMTQ2MzU1NTUxMjQyODI4NDIsMC4zNDgwODg4Nzg2MzE1OTIyIHQwLjM0ODA4ODg3ODYzMTU5MjIsMC4xNDYzNTU1NTEyNDI4Mjg0MiBoMjQuNzIyMjIxNDkzNzIxMDEgcTAuMjAxNzMzMzI3Mzg4NzYzNDYsMCAwLjM0ODA4ODg3ODYzMTU5MjIsLTAuMTQ2MzU1NTUxMjQyODI4NDIgdDAuMTQ2MzU1NTUxMjQyODI4NDIsLTAuMzQ4MDg4ODc4NjMxNTkyMiB6TTQyLjMzMzMzMTEwODA5MzI2LDE3LjExNjY2MDE3NTcyMTMxNCB2MTYuODExMTEwNjE1NzMwMjg2IHEwLDEuMDIwNTMzMzAzMjYwODAzMyAtMC43MjU4NDQ0MjMwNTU2NDkzLDEuNzQ2Mzc3NzI2MzE2NDUyNiB0LTEuNzQ2Mzc3NzI2MzE2NDUyNiwwLjcyNTg0NDQyMzA1NTY0OTMgaC04LjQwNTU1NTMwNzg2NTE0MyBxMCwwLjU3MTU3Nzc2MDkzNDgyOTYgMC4yNDcyMjIyMTQ5MzcyMTAxNywxLjE5NjU1NTUyMDI5NjA5NzEgdDAuNDk0NDQ0NDI5ODc0NDIwNSwxLjA5NzY2NjYzNDMyMTIxMzEgdDAuMjQ3MjIyMjE0OTM3MjEwMTcsMC42NzI0NDQ0MjQ2MjkyMTI0IHEwLDAuNDAxNDg4ODc3MDU4MDI5NSAtMC4yOTI3MTExMDI0ODU2NTY4NSwwLjY5NjE3Nzc1NzI2MzE4NDggdC0wLjY5NjE3Nzc1NzI2MzE4NDgsMC4yOTI3MTExMDI0ODU2NTY4NSBoLTcuOTExMTEwODc3OTkwNzIzIHEtMC40MDE0ODg4NzcwNTgwMjk1LDAgLTAuNjk2MTc3NzU3MjYzMTg0OCwtMC4yOTI3MTExMDI0ODU2NTY4NSB0LTAuMjkyNzExMTAyNDg1NjU2ODUsLTAuNjk2MTc3NzU3MjYzMTg0OCBxMCwtMC4yMTU1Nzc3NzE0MjUyNDcyNiAwLjI0NzIyMjIxNDkzNzIxMDE3LC0wLjY4MDM1NTUzNTUwNzIwMjYgdDAuNDk0NDQ0NDI5ODc0NDIwNSwtMS4wODE4NDQ0MTI1NjUyMzEzIHQwLjI0NzIyMjIxNDkzNzIxMDE3LC0xLjIwNDQ2NjYzMTE3NDA4ODEgaC04LjQwNTU1NTMwNzg2NTE0MyBxLTEuMDIwNTMzMzAzMjYwODAzMywwIC0xLjc0NjM3NzcyNjMxNjQ1MjYsLTAuNzI1ODQ0NDIzMDU1NjQ5MyB0LTAuNzI1ODQ0NDIzMDU1NjQ5MywtMS43NDYzNzc3MjYzMTY0NTI2IHYtMTYuODExMTEwNjE1NzMwMjg2IHEwLC0xLjAyMDUzMzMwMzI2MDgwMzMgMC43MjU4NDQ0MjMwNTU2NDkzLC0xLjc0NjM3NzcyNjMxNjQ1MjYgdDEuNzQ2Mzc3NzI2MzE2NDUyNiwtMC43MjU4NDQ0MjMwNTU2NDkzIGgyNC43MjIyMjE0OTM3MjEwMSBxMS4wMjA1MzMzMDMyNjA4MDMzLDAgMS43NDYzNzc3MjYzMTY0NTI2LDAuNzI1ODQ0NDIzMDU1NjQ5MyB0MC43MjU4NDQ0MjMwNTU2NDkzLDEuNzQ2Mzc3NzI2MzE2NDUyNiB6Ii8+PC9nPjwvZz48L3N2Zz4=;fontSize=10;strokeWidth=2;" vertex="1" parent="1">
          <mxGeometry x="430" y="340" width="30" height="30" as="geometry" />
        </mxCell>
        <mxCell id="os4LgzAEuIEG7fqNAOku-247" style="edgeStyle=orthogonalEdgeStyle;rounded=0;orthogonalLoop=1;jettySize=auto;html=1;entryX=0;entryY=0.5;entryDx=0;entryDy=0;startArrow=classic;startFill=1;" edge="1" parent="1" source="os4LgzAEuIEG7fqNAOku-246" target="os4LgzAEuIEG7fqNAOku-232">
          <mxGeometry relative="1" as="geometry" />
        </mxCell>
        <mxCell id="os4LgzAEuIEG7fqNAOku-246" value="" style="shape=actor;whiteSpace=wrap;html=1;" vertex="1" parent="1">
          <mxGeometry x="110" y="203.75" width="40" height="60" as="geometry" />
        </mxCell>
        <mxCell id="os4LgzAEuIEG7fqNAOku-249" style="edgeStyle=orthogonalEdgeStyle;rounded=0;orthogonalLoop=1;jettySize=auto;html=1;exitX=1;exitY=0.75;exitDx=0;exitDy=0;entryX=0.044;entryY=0.648;entryDx=0;entryDy=0;entryPerimeter=0;startArrow=classic;startFill=1;" edge="1" parent="1" source="os4LgzAEuIEG7fqNAOku-233" target="os4LgzAEuIEG7fqNAOku-244">
          <mxGeometry relative="1" as="geometry" />
        </mxCell>
      </root>
    </mxGraphModel>
  </diagram>
</mxfile>
